<?xml version="1.0" encoding="utf-8"?>
<svg version="1.0" width="512px" height="512px" viewBox="0 0 5120 5120" preserveAspectRatio="xMidYMid meet" xmlns="http://www.w3.org/2000/svg">
  <g id="layer101" fill="#585858" stroke="none">
    <path d="M2295 4693 c-731 -63 -1383 -513 -1714 -1183 -332 -671 -280 -1490 134 -2110 94 -141 177 -240 302 -361 861 -835 2257 -783 3061 114 575 642 705 1575 327 2352 -320 659 -955 1104 -1690 1185 -84 9 -329 11 -420 3z"/>
  </g>
  <g id="layer102" fill="#47846d" stroke="none">
    <path d="M2441 3949 c-150 -28 -312 -226 -407 -496 -19 -54 -34 -83 -44 -83 -8 0 -50 7 -93 15 -262 50 -465 20 -581 -86 -118 -108 -133 -243 -48 -431 34 -74 125 -210 194 -290 l50 -57 -67 -77 c-163 -191 -235 -344 -235 -500 0 -216 194 -339 505 -320 89 5 226 26 275 41 13 4 21 -9 38 -63 52 -163 157 -340 252 -425 76 -69 131 -92 215 -92 86 1 134 23 219 104 93 88 170 216 231 385 18 50 37 91 41 91 5 0 52 -9 104 -19 142 -29 343 -28 435 1 199 63 290 215 241 401 -31 115 -118 266 -228 394 -32 37 -58 71 -58 76 0 5 12 19 26 33 68 62 188 239 228 336 112 270 -3 472 -293 514 -99 14 -247 6 -373 -19 l-87 -18 -21 66 c-57 171 -153 334 -248 421 -90 82 -179 115 -271 98z m136 -140 c89 -43 175 -168 249 -364 l42 -109 -76 -27 c-128 -44 -164 -57 -236 -88 l-68 -29 -87 38 c-47 20 -130 52 -184 71 -113 38 -109 23 -51 169 69 177 164 309 246 345 48 21 115 18 165 -6z m-684 -543 c37 -7 69 -15 72 -18 3 -3 -3 -47 -14 -99 -11 -52 -25 -139 -32 -194 l-12 -100 -55 -40 c-30 -22 -100 -78 -156 -124 l-100 -84 -44 49 c-145 164 -234 351 -217 457 15 88 69 136 185 164 66 15 270 10 373 -11z m1620 -6 c71 -27 124 -77 133 -126 23 -122 -56 -295 -214 -474 l-49 -54 -75 65 c-41 36 -112 94 -156 128 -81 61 -82 63 -82 105 0 24 -9 97 -21 163 -11 65 -23 132 -26 150 -5 31 -5 31 48 42 179 37 346 37 442 1z m-1327 -74 c108 -37 154 -57 149 -66 -3 -4 -22 -15 -42 -25 -37 -18 -180 -100 -230 -132 l-25 -17 5 30 c3 16 13 75 23 132 20 117 15 114 120 78z m714 21 c0 -2 9 -52 20 -112 29 -157 30 -153 -32 -116 -29 17 -95 55 -145 84 -51 28 -93 55 -93 58 0 4 51 25 113 47 103 38 137 47 137 39z m-121 -301 c47 -29 107 -65 132 -81 l46 -28 7 -81 c8 -104 8 -302 0 -397 l-7 -74 -131 -82 c-72 -44 -178 -105 -236 -134 l-104 -53 -101 53 c-55 29 -159 89 -231 133 l-132 81 -4 140 c-2 77 -2 199 0 271 l4 132 47 27 c25 15 82 50 126 78 44 28 131 77 194 109 l114 57 95 -49 c52 -27 134 -73 181 -102z m419 -296 c51 -44 92 -85 92 -90 0 -9 -173 -162 -190 -168 -6 -2 -10 63 -10 167 0 94 4 171 8 171 4 0 49 -36 100 -80z m-1313 -258 c-7 -8 -180 142 -183 160 -2 9 33 46 90 94 l93 78 3 -164 c1 -89 0 -165 -3 -168z m1617 -57 c34 -44 79 -118 101 -164 35 -72 41 -95 45 -165 3 -72 1 -85 -20 -115 -47 -71 -138 -101 -304 -101 -103 0 -291 24 -305 38 -4 4 4 59 17 122 13 63 26 147 30 186 l7 71 86 66 c47 36 118 95 156 131 l70 64 28 -26 c16 -15 56 -63 89 -107z m-1804 52 c48 -41 114 -94 147 -119 l60 -46 14 -98 c7 -55 21 -141 32 -193 11 -52 16 -98 12 -102 -17 -16 -193 -39 -299 -39 -299 0 -394 124 -283 369 40 88 196 301 221 301 5 0 49 -33 96 -73z m414 -301 c29 -18 93 -55 141 -81 49 -26 85 -51 80 -56 -16 -16 -236 -90 -243 -82 -4 4 -15 51 -24 103 -9 52 -19 107 -22 123 -7 35 4 34 68 -7z m824 -13 c-14 -98 -39 -213 -47 -213 -16 0 -239 82 -239 89 0 3 35 25 78 48 42 23 106 60 142 82 36 22 67 40 69 41 2 0 0 -21 -3 -47z m-326 -241 c53 -21 132 -51 176 -66 l81 -27 -29 -82 c-87 -246 -200 -392 -318 -412 -124 -21 -253 109 -348 350 -62 156 -68 136 56 178 59 21 144 53 187 72 44 19 85 33 90 31 6 -3 53 -22 105 -44z"/>
  </g>
  <g id="layer103" fill="#047ef8" stroke="none">
    <path d="M2440 2664 c-73 -31 -115 -98 -105 -167 8 -55 31 -87 86 -115 34 -18 55 -22 94 -19 43 4 54 10 87 47 45 51 53 74 43 137 -8 57 -51 103 -112 121 -49 15 -50 15 -93 -4z" style="fill: rgb(243, 116, 89);"/>
  </g>
  <g id="layer104" fill="#fd0480" stroke="none">
    <path d="M2441 3949 c-150 -28 -312 -226 -407 -496 -19 -54 -34 -83 -44 -83 -8 0 -50 7 -93 15 -262 50 -465 20 -581 -86 -118 -108 -133 -243 -48 -431 34 -74 125 -209 193 -289 27 -30 49 -59 49 -63 0 -4 -29 -41 -65 -83 -158 -186 -235 -344 -235 -489 0 -48 6 -74 31 -123 89 -178 332 -240 669 -171 52 11 95 18 95 17 1 -1 14 -38 29 -82 81 -230 211 -411 344 -477 66 -32 169 -32 232 1 129 68 254 241 335 465 18 50 37 91 41 91 5 0 52 -9 104 -19 142 -29 343 -28 435 1 199 63 290 215 241 401 -32 121 -138 298 -244 410 l-57 60 33 34 c41 41 137 166 179 233 75 120 112 259 93 348 -48 226 -308 323 -678 252 -41 -8 -83 -17 -92 -20 -14 -4 -22 8 -40 62 -57 174 -153 337 -248 424 -90 82 -179 115 -271 98z m136 -140 c90 -44 189 -194 263 -396 l29 -83 -27 -6 c-31 -8 -117 -40 -253 -95 l-97 -39 -88 39 c-49 21 -133 53 -187 72 -113 38 -109 23 -51 169 69 177 164 309 246 345 48 21 115 18 165 -6z m-684 -543 c37 -7 69 -15 72 -18 3 -3 -3 -47 -14 -99 -32 -158 -45 -273 -32 -277 6 -2 -33 -38 -87 -79 -53 -42 -125 -100 -159 -129 -33 -30 -66 -54 -71 -54 -25 0 -163 182 -211 278 -108 214 -65 343 129 389 66 15 270 10 373 -11z m1558 14 c80 -15 158 -58 181 -100 30 -55 21 -175 -19 -262 -38 -80 -94 -164 -169 -252 l-55 -66 -77 68 c-42 37 -113 95 -158 129 l-81 62 -6 78 c-8 101 -46 296 -59 304 -9 6 78 24 202 42 53 9 190 7 241 -3z m-1234 -106 c54 -20 114 -40 133 -44 19 -4 27 -8 18 -9 -23 -1 -105 -43 -221 -114 -54 -32 -101 -57 -103 -54 -2 2 5 57 16 121 11 65 20 122 20 127 0 17 39 9 137 -27z m687 9 c21 -106 37 -206 34 -218 -2 -10 -34 4 -113 51 -60 35 -130 75 -155 87 l-45 22 120 42 c66 23 128 42 137 42 10 1 18 -9 22 -26z m-309 -174 c87 -45 154 -84 317 -184 l46 -29 8 -115 c4 -64 4 -185 1 -268 -4 -113 -2 -153 6 -153 26 0 -237 -163 -376 -233 l-109 -54 -101 54 c-56 30 -162 92 -234 136 l-133 81 -2 121 c-1 66 -1 188 0 270 l2 150 52 35 c107 72 206 129 313 184 61 30 111 55 111 56 1 0 46 -23 99 -51z m607 -402 c74 -65 94 -87 87 -99 -12 -22 -174 -158 -188 -158 -8 0 -11 51 -11 170 0 94 3 170 8 170 4 0 51 -37 104 -83z m-1312 -93 c0 -100 -4 -164 -9 -162 -6 2 -52 39 -104 83 l-94 80 26 26 c42 43 160 139 171 139 6 0 10 -63 10 -166z m-85 -254 l100 -78 14 -98 c7 -55 22 -143 33 -197 11 -54 18 -100 16 -102 -13 -13 -204 -35 -304 -35 -156 0 -235 22 -287 79 -96 107 -27 322 181 558 l43 48 52 -49 c29 -27 97 -84 152 -126z m1630 118 c72 -80 130 -166 172 -253 31 -65 37 -91 41 -159 3 -72 1 -85 -20 -115 -47 -71 -138 -101 -304 -101 -103 0 -291 24 -305 38 -4 4 4 59 17 122 13 63 27 149 30 190 l7 75 81 62 c44 34 113 91 151 127 39 36 73 65 77 66 3 0 27 -24 53 -52z m-1323 -332 c29 -18 92 -55 141 -81 48 -26 87 -50 87 -55 0 -11 -230 -92 -245 -86 -6 2 -20 51 -29 108 -10 56 -20 113 -23 126 -7 30 7 28 69 -12z m824 -13 c-14 -99 -39 -213 -47 -213 -10 0 -225 77 -240 85 -6 4 45 39 113 77 68 39 132 77 143 84 32 23 38 17 31 -33z m-336 -236 c58 -24 141 -56 186 -71 l81 -27 -29 -82 c-87 -246 -200 -392 -318 -412 -124 -21 -252 108 -349 351 -23 56 -41 107 -41 113 0 6 -10 16 -22 21 -19 7 -20 9 -5 9 24 1 222 71 312 110 39 17 72 31 75 31 3 0 52 -20 110 -43z" style="fill: rgb(123, 208, 193);"/>
  </g>
  <g id="layer105" fill="#fd8001" stroke="none">
    <path d="M2441 3949 c-116 -22 -246 -150 -340 -337 -36 -71 -91 -215 -91 -238 0 -15 23 -27 75 -38 30 -6 30 -6 59 76 140 402 343 525 526 321 54 -61 123 -192 170 -320 l29 -83 -27 -6 c-55 -14 -330 -122 -352 -139 -14 -11 -57 -32 -175 -85 -27 -13 -99 -52 -158 -87 -60 -36 -111 -63 -113 -60 -3 3 16 130 39 261 2 9 -101 42 -108 34 -7 -7 -41 -183 -55 -283 -9 -65 -10 -90 -1 -93 6 -2 -33 -38 -87 -79 -339 -264 -550 -519 -608 -736 -24 -90 -18 -165 17 -236 89 -178 332 -240 669 -171 52 11 95 18 95 17 1 -1 14 -38 29 -82 81 -230 211 -411 344 -477 66 -32 169 -32 232 1 130 68 254 241 336 468 31 85 32 94 16 99 -9 3 -29 10 -44 16 -42 16 -54 5 -78 -69 -13 -37 -40 -104 -61 -148 -153 -324 -356 -360 -523 -92 -41 66 -126 259 -126 286 0 6 -10 16 -22 21 -19 7 -20 9 -5 9 47 2 356 122 427 166 19 12 55 29 80 39 49 19 109 52 238 129 46 27 86 47 89 43 5 -4 -13 -127 -33 -223 -6 -31 -4 -34 29 -48 59 -24 75 -20 86 23 16 59 51 270 51 310 1 34 7 42 68 87 101 76 146 116 276 243 214 211 325 383 356 551 44 244 -178 412 -513 387 -82 -6 -214 -27 -257 -41 -14 -4 -22 8 -40 62 -57 174 -153 337 -248 424 -90 82 -179 115 -271 98z m1010 -669 c80 -15 158 -58 181 -100 16 -28 19 -50 16 -115 -5 -91 -34 -166 -108 -275 -59 -87 -218 -270 -234 -270 -8 0 -16 -6 -19 -13 -7 -17 -172 -157 -185 -157 -8 0 -12 56 -14 177 l-3 177 -54 38 c-30 21 -57 38 -60 38 -3 0 -6 -117 -6 -260 0 -164 4 -260 10 -260 24 0 -230 -157 -375 -232 -63 -32 -128 -67 -145 -77 -35 -20 -45 -24 -219 -86 -71 -25 -134 -44 -141 -42 -9 4 -55 221 -55 260 0 10 -121 89 -127 83 -8 -7 10 -131 38 -274 11 -57 19 -105 17 -107 -13 -13 -204 -35 -304 -35 -156 0 -235 22 -287 79 -107 118 -12 360 246 627 86 89 241 224 258 224 5 0 9 -69 9 -168 l0 -168 33 -24 c17 -13 46 -34 64 -48 l32 -24 -1 268 -1 268 54 36 c115 75 209 130 324 189 66 34 139 72 163 85 54 29 329 122 337 114 3 -3 16 -63 28 -133 l23 -128 54 -38 c30 -21 59 -38 64 -39 21 -1 -33 357 -56 371 -9 6 78 24 202 42 53 9 190 7 241 -3z" style="fill: rgb(126, 202, 246);"/>
  </g>
  <g id="layer106" fill="#00ff80" stroke="none">
    <path d="M3175 3399 c-88 -11 -339 -74 -425 -106 -142 -54 -246 -97 -260 -108 -14 -11 -52 -30 -175 -85 -204 -93 -546 -338 -744 -533 -242 -239 -361 -443 -361 -623 0 -123 86 -235 217 -284 145 -54 338 -49 591 15 193 49 423 135 512 190 19 12 55 29 80 39 55 21 244 128 358 202 45 30 87 54 92 54 4 0 10 3 12 8 2 4 35 32 73 62 220 171 427 387 532 555 75 120 112 259 93 348 -44 208 -265 307 -595 266z m276 -119 c80 -15 158 -58 181 -100 16 -28 19 -50 16 -115 -5 -91 -34 -166 -108 -275 -61 -90 -218 -270 -235 -270 -8 0 -15 -4 -15 -9 0 -10 -154 -145 -188 -165 -10 -6 -49 -33 -86 -61 -103 -77 -289 -192 -416 -257 -63 -32 -129 -67 -145 -77 -61 -36 -370 -141 -510 -173 -59 -13 -143 -22 -242 -25 -135 -5 -159 -3 -221 16 -157 47 -189 167 -97 366 127 275 544 637 1010 874 66 34 139 72 163 85 23 12 109 44 190 71 81 26 156 52 167 56 125 51 411 82 536 59z" style="fill: rgb(242, 132, 158);"/>
  </g>
</svg>