<?xml version="1.0" encoding="utf-8"?>
<svg version="1.0" width="324" height="324" viewBox="0 0 3240 3240" xmlns="http://www.w3.org/2000/svg">
  <path d="M 32.737 1617.272 L 32.737 38.194 L 3212.719 38.194 L 3212.719 3196.349 L 32.737 3196.349 L 32.737 1617.272 Z" fill="#303e4c" style=""/>
  <g fill="#9f575d">
    <path d="M1592 2889c-45-13-148-119-195-199-20-36-54-107-74-159-41-107-46-99 67-135 41-14 111-39 155-56 44-18 89-34 101-37 11-2 61 11 110 31 49 19 126 47 169 61 44 15 84 30 89 35s4 20-2 37c-6 15-12 37-14 48s-5 22-8 25-21 39-41 80c-43 89-116 188-167 228-63 49-119 61-190 41zM1640 912c-8-2-33-12-55-22-56-25-225-87-258-95-15-4-29-11-32-15-16-26 92-256 159-342 69-87 186-157 186-111 0 68 57 154 117 179 18 8 59 14 92 14 60 0 60 0 85 43 38 64 89 196 82 213-3 8-11 16-18 18-91 26-222 72-308 109-19 8-42 12-50 9z" style=""/>
  </g>
  <path d="M1562 1723c-96-92-70-223 53-263 126-42 246 112 172 221-35 52-82 79-138 79-42 0-53-5-87-37z" fill="#7973b9" style=""/>
  <g fill="#909b85" style="">
    <path d="M2420 2473c-11-15-18-33-15-41 3-7 5-18 5-22 0-18 44-50 67-50 31 0 73 43 73 75 0 63-89 89-130 38zM2241 2349c-24-5-46-11-48-13-3-3 9-80 26-173 17-92 31-178 31-189 0-15 27-43 93-95 50-40 118-97 150-126 70-64 61-68 163 70 147 199 181 358 98 455-47 55-95 66-125 28-31-40-91-66-150-66-74 0-122 26-181 101-10 13-22 14-57 8zM1940 2269c-63-20-116-41-117-46-2-5 25-24 59-42 35-19 98-56 142-83 43-27 81-46 84-44 3 3-3 43-12 88-9 46-16 97-16 114 0 53-15 54-140 13zM959 1706c-120-103-117-94-61-147 60-58 134-119 143-119 4 0 7 74 7 165s-4 165-8 165-40-29-81-64zM2265 1616c0-85 3-158 7-162 4-3 18 0 31 9 36 24 141 116 150 133 6 11-6 28-44 62-61 55-132 112-139 112-3 0-5-69-5-154zM727 1487c-9-12-38-48-63-80-68-86-143-250-150-328-5-54-2-71 18-109 44-86 152-129 323-130 75 0 243 22 263 34 5 3 1 39-9 83-10 43-21 107-24 143s-11 88-17 115c-10 47-16 54-98 118-47 37-114 92-147 122-34 30-65 55-70 55-4-1-16-11-26-23zM1206 1152c-6-9 26-191 39-224 9-24 17-23 121 13 49 17 97 33 107 36 28 9 16 22-53 60-63 34-143 81-187 110-12 8-24 10-27 5z"/>
  </g>
  <g fill="#fd6266" style="">
    <path d="M1590 2886c-47-15-146-116-193-196-20-36-54-107-74-159-40-103-40-102 32-122 54-15 59-16 65-16 3 0 23-9 45-20s58-26 80-33 55-19 74-28c32-15 38-15 95 7 34 13 114 42 178 65s120 45 123 48c19 19-79 231-149 325-94 124-173 162-276 129zM1548 875c-59-24-137-53-175-65-37-12-72-26-76-30-21-19 87-252 158-343 49-62 125-117 161-117 17 0 23 8 29 38 10 54 41 104 82 132 29 20 52 26 110 28l73 4 25 42c32 54 88 193 83 207-2 6-69 35-148 64-80 29-161 59-180 68-34 14-38 13-142-28zM1796 379c-30-24-34-63-10-97 11-16 25-22 54-22s43 6 54 22c23 32 20 71-7 96-29 28-57 28-91 1z"/>
  </g>
  <g fill="#99d6d1" style="">
    <path d="M710 2356c-104-23-161-64-186-133-17-50-17-88 1-150l15-51 61-11c130-23 205-135 166-250-8-23-11-44-6-46 4-3 41 23 81 58s105 89 145 120c74 59 76 61 88 162 3 28 15 101 27 162 12 62 19 116 16 119s-46 12-94 20c-106 17-238 17-314 0zM1241 2268c-13-40-40-206-34-212 5-5 283 157 283 165 0 7-208 79-227 79-6 0-16-15-22-32zM527 1872c-23-25-22-85 1-105 25-23 74-21 100 3 28 26 29 73 2 100-26 26-81 26-103 2zM2464 1433c-50-43-118-99-151-125-57-43-62-50-68-95-3-26-17-112-32-191-14-78-23-145-20-148 15-15 210-35 302-31 156 7 249 50 286 131 48 106-8 268-161 461-33 41-62 75-63 75-2 0-44-35-93-77zM2005 1101c-44-27-104-62-134-77-49-25-52-28-36-40 19-14 191-74 212-74 7 0 19 24 28 52 19 64 31 188 19 188-5 0-45-22-89-49z"/>
  </g>
  <g fill="#fde28c" style="">
    <path d="M2427 2482c-39-42-5-122 50-122 31 0 73 43 73 75 0 56-86 89-123 47zM2241 2349c-24-5-46-11-48-13-3-3 9-80 26-173 17-92 31-178 31-190 0-15 25-41 88-90 48-37 116-94 151-126l64-58 23 22c41 38 146 192 176 257 37 80 52 158 44 215-14 92-124 172-163 118-23-33-84-68-128-73-78-10-145 24-207 103-10 13-22 14-57 8zM1940 2269c-63-20-116-41-117-46-2-5 25-24 59-42 35-19 98-56 141-83 43-26 80-48 81-48 7 0 2 41-10 103-8 38-14 83-14 101 0 55-14 57-140 15zM953 1701c-117-101-115-89-36-161 37-34 80-71 96-82l27-19v99c0 54 3 127 6 161 9 80-4 80-93 2zM2270 1758c-6-50-4-300 2-304 5-3 19 1 32 10 35 23 140 116 149 132 6 11-6 28-44 62-91 82-137 115-139 100zM735 1496c-11-14-88-112-106-134-6-7-33-59-60-116-61-127-72-199-41-268 38-87 125-127 292-135 96-5 281 15 298 31 3 3-4 57-16 119-12 61-22 129-22 149 0 88-17 118-110 191-48 37-114 92-147 122-66 59-73 62-88 41zM1206 1152c-6-9 26-191 39-224 9-24 15-23 121 12 144 48 144 46 18 118-60 34-123 71-141 82-17 12-34 17-37 12z"/>
  </g>
  <g fill="#fff" style="">
    <path d="M -6.52 1620 L -6.52 -3.598 L 3245.442 -3.598 L 3245.442 3243.598 L -6.52 3243.598 L -6.52 1620 Z M 1782.059 2995.048 C 1837.263 2970.994 1917.558 2899.836 1970.753 2826.674 C 2013.912 2768.546 2087.182 2627.232 2121.306 2534.026 C 2133.35 2499.95 2147.403 2468.882 2152.422 2465.874 C 2157.44 2463.87 2189.557 2465.874 2223.684 2471.888 C 2284.908 2482.912 2288.923 2484.917 2310.001 2525.006 C 2384.275 2664.314 2579.994 2660.306 2653.263 2517.99 C 2674.34 2476.899 2687.389 2465.874 2733.559 2444.828 C 2797.796 2416.766 2867.049 2353.626 2896.157 2296.5 C 2923.256 2246.388 2931.286 2132.135 2914.223 2059.975 C 2888.127 1948.728 2809.84 1806.414 2701.44 1677.127 C 2675.345 1645.056 2653.263 1611.982 2653.263 1604.967 C 2653.263 1597.952 2674.34 1567.885 2699.433 1537.818 C 2840.953 1372.452 2924.26 1194.056 2924.26 1053.746 C 2924.26 961.541 2900.171 902.41 2834.931 837.266 C 2775.713 779.137 2709.47 746.064 2609.1 727.022 C 2541.853 713.992 2379.255 715.997 2284.908 730.028 C 2141.38 751.075 2154.429 758.09 2106.251 637.824 C 2082.163 579.695 2051.048 510.542 2035.993 483.482 C 2010.901 440.386 2008.893 431.366 2018.93 403.304 C 2032.981 364.218 2034.989 288.049 2021.941 253.973 C 2001.868 202.86 1950.679 157.76 1894.472 140.722 C 1845.291 126.691 1835.255 126.691 1786.073 140.722 C 1756.967 149.742 1726.855 163.773 1719.83 171.791 C 1711.8 181.813 1689.719 186.824 1653.586 186.824 C 1544.184 186.824 1427.756 258.984 1334.411 385.264 C 1294.265 440.386 1220.995 585.708 1187.874 675.908 C 1175.829 709.984 1161.777 741.052 1156.759 744.059 C 1151.74 747.066 1101.556 742.055 1043.341 733.035 C 650.898 674.906 407.001 786.152 387.931 1030.694 C 376.891 1169.001 461.2 1359.423 610.75 1533.809 C 675.99 1609.978 670.972 1624.009 575.621 1630.022 C 491.311 1636.036 445.141 1659.087 405.997 1715.211 C 374.883 1761.314 373.879 1845.5 404.994 1909.642 C 427.075 1957.748 427.075 1959.753 411.016 2007.86 C 384.92 2082.024 378.898 2187.257 398.971 2253.404 C 429.082 2358.637 532.462 2444.828 666.957 2476.899 C 748.256 2495.942 931.931 2495.942 1057.393 2477.902 C 1109.586 2469.884 1154.751 2464.872 1158.766 2467.879 C 1161.777 2469.884 1175.829 2499.95 1187.874 2534.026 C 1278.205 2780.572 1412.7 2952.954 1558.236 3009.078 C 1609.424 3028.12 1722.841 3022.108 1782.059 2995.048 Z" style=""/>
    <path d="M1525 2091c-126-66-283-162-323-196l-27-23v-534l27-23c70-60 416-255 453-255 33 0 357 180 460 256 19 14 20 26 20 289s-1 275-20 289c-105 77-427 256-461 256-10 0-68-27-129-59zm244-241c62-31 98-67 128-127 112-230-130-472-360-359-99 48-150 130-150 242 0 61 4 79 30 125 37 65 85 106 155 131 63 22 140 18 197-12z"/>
  </g>
</svg>