<?xml version="1.0" standalone="no"?>
<!DOCTYPE svg PUBLIC "-//W3C//DTD SVG 20010904//EN"
 "http://www.w3.org/TR/2001/REC-SVG-20010904/DTD/svg10.dtd">
<svg version="1.0" xmlns="http://www.w3.org/2000/svg"
 width="324.000000pt" height="324.000000pt" viewBox="0 0 324.000000 324.000000"
 preserveAspectRatio="xMidYMid meet">
<metadata>
Created by potrace 1.11, written by Peter Selinger 2001-2013
</metadata>
<g transform="translate(0.000000,324.000000) scale(0.100000,-0.100000)"
fill="#000000" stroke="none">
<path d="M1780 3094 c-25 -9 -51 -21 -59 -27 -7 -6 -42 -14 -77 -18 -183 -19
-329 -171 -444 -464 -17 -44 -35 -84 -39 -88 -4 -4 -63 -1 -132 8 -150 18
-220 19 -321 1 -144 -26 -237 -85 -284 -182 -72 -148 -22 -336 149 -563 43
-57 81 -109 84 -116 5 -15 -26 -35 -56 -35 -65 0 -127 -24 -168 -65 -42 -41
-43 -44 -42 -106 0 -35 8 -86 18 -113 16 -46 16 -52 -1 -115 -44 -171 -5 -297
118 -382 119 -82 240 -93 618 -56 15 2 26 -16 55 -88 78 -192 166 -322 272
-400 76 -56 141 -72 228 -57 87 16 127 38 201 112 75 73 131 164 200 325 47
108 49 110 80 108 80 -4 100 -13 137 -64 89 -125 252 -120 332 11 22 35 44 56
78 74 66 33 140 100 165 149 14 27 22 68 25 122 9 136 -48 273 -193 464 -41
54 -74 101 -74 105 0 3 36 54 81 113 161 213 221 405 173 547 -20 58 -100 143
-165 174 -108 52 -214 60 -511 36 l-78 -7 -26 59 c-15 33 -46 101 -70 153
l-44 94 12 63 c18 101 -13 174 -91 213 -55 29 -100 33 -151 15z m110 -134 c27
-27 25 -66 -5 -95 -31 -32 -55 -32 -89 0 -48 44 -21 115 44 115 17 0 39 -9 50
-20z m-243 -82 c27 -101 86 -148 194 -156 l70 -5 26 -44 c35 -61 84 -189 78
-205 -6 -14 -331 -138 -363 -138 -11 0 -37 7 -58 16 -22 9 -97 38 -169 64
-128 47 -130 48 -127 76 4 43 114 262 160 320 44 56 124 114 157 114 16 0 23
-9 32 -42z m-574 -497 c21 -5 41 -12 45 -15 3 -4 -4 -66 -16 -139 -12 -73 -22
-145 -22 -160 0 -61 -26 -93 -174 -217 -82 -68 -153 -120 -160 -117 -24 9
-134 165 -169 240 -71 149 -83 226 -47 296 33 65 96 104 200 125 39 7 301 -2
343 -13z m1512 8 c192 -35 256 -153 185 -342 -24 -65 -116 -208 -177 -275
l-38 -43 -135 112 c-74 61 -143 119 -152 128 -13 12 -26 68 -48 196 -16 98
-30 185 -30 192 0 32 273 55 395 32z m-1212 -88 c121 -41 123 -42 95 -68 -38
-34 -252 -153 -261 -144 -8 8 18 175 34 219 11 29 28 28 132 -7z m701 -18 c18
-54 33 -193 21 -193 -17 0 -264 146 -265 157 0 15 167 80 212 82 11 1 21 -14
32 -46z m-285 -163 c64 -33 166 -91 226 -129 89 -56 111 -74 116 -97 9 -38 9
-480 0 -518 -5 -23 -27 -41 -116 -97 -127 -79 -335 -189 -359 -189 -36 0 -340
167 -443 244 l-42 31 -1 268 c0 267 0 269 23 288 70 60 423 258 461 259 10 0
71 -27 135 -60z m-739 -491 c0 -80 -3 -149 -6 -152 -14 -14 -184 131 -184 155
0 14 93 108 144 147 23 17 31 19 38 9 4 -7 8 -79 8 -159z m1260 144 c47 -31
150 -125 150 -135 0 -13 -62 -73 -133 -130 -46 -36 -52 -38 -58 -21 -9 23 -11
229 -3 272 7 36 11 37 44 14z m282 -270 c20 -21 57 -69 82 -107 145 -213 164
-364 60 -456 -44 -38 -74 -38 -118 0 -95 84 -201 77 -296 -20 -41 -42 -43 -42
-112 -23 -23 6 -23 1 12 210 l30 178 47 40 c26 22 92 79 147 127 56 48 103 87
106 87 3 1 22 -16 42 -36z m-1650 -116 c58 -48 111 -100 116 -115 14 -37 66
-361 59 -368 -3 -3 -45 -12 -94 -21 -110 -19 -286 -13 -358 12 -130 45 -177
134 -142 269 10 39 18 51 37 57 14 3 44 12 68 18 48 14 106 60 129 105 12 23
14 48 10 109 l-6 78 37 -28 c21 -15 85 -68 144 -116z m-315 81 c47 -44 16
-118 -49 -118 -17 0 -40 7 -50 17 -23 20 -24 80 -1 105 22 25 71 23 100 -4z
m1482 -300 c0 -13 -8 -68 -17 -123 -20 -121 -20 -121 -155 -76 -112 38 -128
47 -107 61 76 48 267 159 273 159 4 1 7 -9 6 -21z m-754 -63 c139 -82 141 -83
133 -90 -8 -8 -208 -75 -223 -75 -16 0 -40 75 -50 155 -4 28 -9 58 -12 68 -8
30 19 20 152 -58z m388 -194 c143 -50 252 -91 266 -100 18 -12 -6 -87 -66
-201 -95 -183 -204 -278 -307 -266 -104 12 -233 159 -306 349 -43 111 -42 117
55 149 44 14 118 42 165 61 47 19 91 35 98 36 6 1 49 -12 95 -28z m782 -56
c48 -47 19 -115 -48 -115 -65 0 -93 74 -47 120 27 27 66 25 95 -5z"/>
<path d="M1564 1884 c-55 -20 -120 -77 -146 -128 -31 -60 -36 -160 -11 -217
47 -106 140 -169 248 -169 144 1 252 103 263 251 7 103 -41 191 -135 246 -56
32 -157 41 -219 17z m171 -123 c33 -18 75 -91 75 -131 -1 -70 -89 -150 -167
-150 -36 0 -94 44 -119 91 -30 59 -11 149 39 182 57 37 114 40 172 8z"/>
</g>
</svg>
